<?xml version="1.0" encoding="iso-8859-1"?>
<!-- Generator: Adobe Illustrator 19.0.0, SVG Export Plug-In . SVG Version: 6.00 Build 0)  -->
<svg xmlns="http://www.w3.org/2000/svg" xmlns:xlink="http://www.w3.org/1999/xlink" version="1.1" id="Capa_1" x="0px" y="0px" viewBox="0 0 490 490" style="enable-background:new 0 0 490 490;" xml:space="preserve" width="50px" height="50px">
<g>
	<path d="M0,444.063h490V45.938H0V444.063z M15.312,61.25h459.375v367.5H15.312V61.25z" fill="#FFFFFF"/>
	<rect x="168.437" y="300.373" width="153.125" height="15.313" fill="#FFFFFF"/>
	<rect x="91.875" y="346.311" width="306.25" height="15.313" fill="#FFFFFF"/>
	<path d="M384.084,167.555c-6.998,0-12.681,5.682-12.681,12.681s5.682,12.696,12.681,12.696c6.998,0,12.696-5.697,12.696-12.696   S391.082,167.555,384.084,167.555z" fill="#FFFFFF"/>
	<path d="M344.157,137.813H61.25v91.875h282.907h84.513h0.079v-91.875h-0.079H344.157z M344.157,214.375H76.562v-61.25h267.595   V214.375z M405.258,206.48l-9.827-9.814c-3.288,2.281-7.054,3.923-11.347,3.923c-11.215,0-20.337-9.137-20.337-20.352   s9.122-20.337,20.337-20.337c11.215,0,20.352,9.122,20.352,20.337c0,4.122-1.537,7.743-3.655,10.953l9.891,9.878L405.258,206.48z" fill="#FFFFFF"/>
</g>
<g>
</g>
<g>
</g>
<g>
</g>
<g>
</g>
<g>
</g>
<g>
</g>
<g>
</g>
<g>
</g>
<g>
</g>
<g>
</g>
<g>
</g>
<g>
</g>
<g>
</g>
<g>
</g>
<g>
</g>
</svg>
