<?xml version="1.0" encoding="UTF-8" standalone="no"?>
<!DOCTYPE svg PUBLIC "-//W3C//DTD SVG 1.1//EN" "http://www.w3.org/Graphics/SVG/1.1/DTD/svg11.dtd">
<svg width="100%" height="100%" viewBox="0 0 671 669" version="1.1" xmlns="http://www.w3.org/2000/svg" xmlns:xlink="http://www.w3.org/1999/xlink" xml:space="preserve" style="fill-rule:evenodd;clip-rule:evenodd;stroke-linejoin:round;stroke-miterlimit:1.41421;">
    <g transform="matrix(1,0,0,1.03514,-638.637,-173.399)">
        <text x="750px" y="609.265px" style="font-family:'Stencil', fantasy;font-size:380.378px;fill:white;">PJ</text>
    </g>
    <g transform="matrix(0.995404,0.000810998,-0.000896062,1.09981,-776.782,-296.472)">
        <path d="M1118.5,276C1298.7,276 1445,408.409 1445,571.5C1445,734.591 1298.7,867 1118.5,867C938.3,867 792,734.591 792,571.5C792,408.409 938.3,276 1118.5,276ZM1118.5,310.317C1277.77,310.317 1407.08,427.349 1407.08,571.5C1407.08,715.651 1277.77,832.683 1118.5,832.683C959.227,832.683 829.917,715.651 829.917,571.5C829.917,427.349 959.227,310.317 1118.5,310.317Z" style="fill:white;"/>
    </g>
</svg>
