<?xml version="1.0" encoding="iso-8859-1"?>
<!-- Generator: Adobe Illustrator 19.0.0, SVG Export Plug-In . SVG Version: 6.00 Build 0)  -->
<svg xmlns="http://www.w3.org/2000/svg" xmlns:xlink="http://www.w3.org/1999/xlink" version="1.1" id="Capa_1" x="0px" y="0px" viewBox="0 0 60 60" style="enable-background:new 0 0 60 60;" xml:space="preserve" width="50px" height="50px">
<g>
	<g>
		<path d="M17,39H7c-3.9,0-7,3.1-7,7v14h2V46c0-2.8,2.2-5,5-5h10c2.8,0,5,2.2,5,5v14h2V46C24,42.1,20.9,39,17,39z" fill="#FFFFFF"/>
		<path d="M11,38h2c2.8,0,5-2.2,5-5v-3c0-2.8-2.2-5-5-5h-2c-2.8,0-5,2.2-5,5v3C6,35.8,8.2,38,11,38z M8,30c0-1.7,1.3-3,3-3h2    c1.7,0,3,1.3,3,3v3c0,1.7-1.3,3-3,3h-2c-1.7,0-3-1.3-3-3V30z" fill="#FFFFFF"/>
		<rect x="5" y="49" width="2" height="11" fill="#FFFFFF"/>
		<rect x="17" y="49" width="2" height="11" fill="#FFFFFF"/>
		<path d="M10,2h38v9c0,0.6,0.4,1,1,1h9v7h2v-8c0-0.1,0-0.2-0.1-0.3v-0.1c-0.1-0.1-0.1-0.2-0.2-0.3l-10-10c-0.1-0.1-0.2-0.1-0.3-0.2    h-0.1C49.2,0.1,49.1,0,49,0H9C8.4,0,8,0.4,8,1v20h2V2z M50,3.4l6.6,6.6H50V3.4z" fill="#FFFFFF"/>
		<path d="M60,31c0-7.7-6.3-14-14-14s-14,6.3-14,14c0,6.2,4.2,11.7,10,13.4V48h-2c-0.6,0-1,0.4-1,1v9H28v2h12h12h7c0.6,0,1-0.4,1-1    V43h-2v15h-5v-9c0-0.6-0.4-1-1-1h-2v-3.6C55.8,42.7,60,37.2,60,31z M51,50v8H41v-1h5v-2h-5v-2h5v-2h-5v-1h2h6H51z M48.8,42.6    c-0.5,0.1-0.8,0.5-0.8,1V48h-4v-4.4c0-0.5-0.3-0.9-0.8-1C37.9,41.4,34,36.5,34,31c0-6.6,5.4-12,12-12s12,5.4,12,12    C58,36.5,54.1,41.4,48.8,42.6z" fill="#FFFFFF"/>
		<path d="M46,21c-5.5,0-10,4.5-10,10s4.5,10,10,10s10-4.5,10-10S51.5,21,46,21z M46,39c-4.4,0-8-3.6-8-8s3.6-8,8-8s8,3.6,8,8    S50.4,39,46,39z" fill="#FFFFFF"/>
		<rect x="13" y="5" width="2" height="2" fill="#FFFFFF"/>
		<rect x="13" y="9" width="16" height="2" fill="#FFFFFF"/>
		<rect x="17" y="5" width="2" height="2" fill="#FFFFFF"/>
		<rect x="21" y="5" width="2" height="2" fill="#FFFFFF"/>
		<rect x="13" y="15" width="2" height="2" fill="#FFFFFF"/>
		<rect x="17" y="15" width="2" height="2" fill="#FFFFFF"/>
		<rect x="21" y="15" width="2" height="2" fill="#FFFFFF"/>
		<rect x="13" y="19" width="2" height="2" fill="#FFFFFF"/>
		<rect x="17" y="19" width="10" height="2" fill="#FFFFFF"/>
		<rect x="25" y="15" width="2" height="2" fill="#FFFFFF"/>
		<rect x="45" y="30" width="2" height="2" fill="#FFFFFF"/>
		<rect x="45" y="26" width="2" height="2" fill="#FFFFFF"/>
		<rect x="45" y="34" width="2" height="2" fill="#FFFFFF"/>
		<rect x="41" y="30" width="2" height="2" fill="#FFFFFF"/>
		<rect x="49" y="30" width="2" height="2" fill="#FFFFFF"/>
	</g>
</g>
<g>
</g>
<g>
</g>
<g>
</g>
<g>
</g>
<g>
</g>
<g>
</g>
<g>
</g>
<g>
</g>
<g>
</g>
<g>
</g>
<g>
</g>
<g>
</g>
<g>
</g>
<g>
</g>
<g>
</g>
</svg>
